{
  "accessors": [
    {
      "bufferView": 2,
      "componentType": 5126,
      "count": 244,
      "max": [
        85.52935791015625,
        117.6669921875,
        75.7833480834961
      ],
      "min": [
        -82.55679321289063,
        -38.12316131591797,
        -77.18136596679688
      ],
      "type": "VEC3"
    },
    {
      "bufferView": 2,
      "byteOffset": 2928,
      "componentType": 5126,
      "count": 244,
      "max": [
        0.9767596125602722,
        0.8769225478172302,
        0.9994356036186218
      ],
      "min": [
        -0.9463215470314026,
        -0.9957332015037537,
        -0.9997486472129822
      ],
      "type": "VEC3"
    },
    {
      "bufferView": 1,
      "componentType": 5126,
      "count": 244,
      "max": [
        1.0,
        1.0
      ],
      "min": [
        0.0,
        0.0
      ],
      "type": "VEC2"
    },
    {
      "bufferView": 0,
      "componentType": 5125,
      "count": 348,
      "type": "SCALAR"
    },
    {
      "bufferView": 2,
      "byteOffset": 5856,
      "componentType": 5126,
      "count": 244,
      "max": [
        127.9579086303711,
        187.00717163085938,
        121.741943359375
      ],
      "min": [
        -123.5107421875,
        -60.58882141113281,
        -123.98778533935547
      ],
      "type": "VEC3"
    },
    {
      "bufferView": 2,
      "byteOffset": 8784,
      "componentType": 5126,
      "count": 244,
      "max": [
        0.9794659614562988,
        0.8773675560951233,
        0.9993599653244019
      ],
      "min": [
        -0.9522513151168823,
        -0.9957163333892822,
        -0.9997194409370422
      ],
      "type": "VEC3"
    },
    {
      "bufferView": 1,
      "byteOffset": 1952,
      "componentType": 5126,
      "count": 244,
      "max": [
        1.0,
        1.0
      ],
      "min": [
        0.0,
        0.0
      ],
      "type": "VEC2"
    },
    {
      "bufferView": 0,
      "byteOffset": 1392,
      "componentType": 5125,
      "count": 348,
      "type": "SCALAR"
    },
    {
      "bufferView": 2,
      "byteOffset": 11712,
      "componentType": 5126,
      "count": 244,
      "max": [
        266.5789794921875,
        141.078369140625,
        249.91726684570313
      ],
      "min": [
        -257.3140563964844,
        -251.93113708496094,
        -254.5276336669922
      ],
      "type": "VEC3"
    },
    {
      "bufferView": 2,
      "byteOffset": 14640,
      "componentType": 5126,
      "count": 244,
      "max": [
        0.9697377681732178,
        0.9212971329689026,
        0.999319851398468
      ],
      "min": [
        -0.9290345311164856,
        -0.9974462985992432,
        -0.9996775984764099
      ],
      "type": "VEC3"
    },
    {
      "bufferView": 1,
      "byteOffset": 3904,
      "componentType": 5126,
      "count": 244,
      "max": [
        1.0,
        1.0
      ],
      "min": [
        0.0,
        0.0
      ],
      "type": "VEC2"
    },
    {
      "bufferView": 0,
      "byteOffset": 2784,
      "componentType": 5125,
      "count": 348,
      "type": "SCALAR"
    },
    {
      "bufferView": 2,
      "byteOffset": 17568,
      "componentType": 5126,
      "count": 511,
      "max": [
        185.95091247558594,
        759.0167846679688,
        229.3119354248047
      ],
      "min": [
        -153.1296844482422,
        -153.45034790039063,
        -215.18994140625
      ],
      "type": "VEC3"
    },
    {
      "bufferView": 2,
      "byteOffset": 23700,
      "componentType": 5126,
      "count": 511,
      "max": [
        0.9379917979240417,
        1.0,
        0.9462307095527649
      ],
      "min": [
        -0.9447247982025146,
        -1.0,
        -0.9472105503082275
      ],
      "type": "VEC3"
    },
    {
      "bufferView": 1,
      "byteOffset": 5856,
      "componentType": 5126,
      "count": 511,
      "max": [
        1.0,
        1.0
      ],
      "min": [
        0.0,
        0.0
      ],
      "type": "VEC2"
    },
    {
      "bufferView": 0,
      "byteOffset": 4176,
      "componentType": 5125,
      "count": 792,
      "type": "SCALAR"
    }
  ],
  "asset": {
    "extras": {
      "author": "joeantani (https://sketchfab.com/joeantani)",
      "license": "CC-BY-4.0 (http://creativecommons.org/licenses/by/4.0/)",
      "source": "https://sketchfab.com/3d-models/lowpoly-tree-cd5a7dc13ea8469e81a7908090e96b8e",
      "title": "LowPoly Tree"
    },
    "generator": "Sketchfab-12.68.0",
    "version": "2.0"
  },
  "bufferViews": [
    {
      "buffer": 0,
      "byteLength": 7344,
      "name": "floatBufferViews",
      "target": 34963
    },
    {
      "buffer": 0,
      "byteLength": 9944,
      "byteOffset": 7344,
      "byteStride": 8,
      "name": "floatBufferViews",
      "target": 34962
    },
    {
      "buffer": 0,
      "byteLength": 29832,
      "byteOffset": 17288,
      "byteStride": 12,
      "name": "floatBufferViews",
      "target": 34962
    }
  ],
  "buffers": [
    {
      "byteLength": 47120,
      "uri": "scene.bin"
    }
  ],
  "materials": [
    {
      "doubleSided": true,
      "name": "Chiome",
      "pbrMetallicRoughness": {
        "baseColorFactor": [
          0.10164,
          0.66,
          0.0396,
          1.0
        ],
        "metallicFactor": 0.0,
        "roughnessFactor": 0.8962528479478358
      }
    },
    {
      "doubleSided": true,
      "name": "Legno",
      "pbrMetallicRoughness": {
        "baseColorFactor": [
          0.46,
          0.180243,
          0.0506,
          1.0
        ],
        "metallicFactor": 0.0,
        "roughnessFactor": 0.8868629150101524
      }
    }
  ],
  "meshes": [
    {
      "name": "piccolo_1_Chiome_0",
      "primitives": [
        {
          "attributes": {
            "NORMAL": 1,
            "POSITION": 0,
            "TEXCOORD_0": 2
          },
          "indices": 3,
          "material": 0,
          "mode": 4
        }
      ]
    },
    {
      "name": "piccolo_Chiome_0",
      "primitives": [
        {
          "attributes": {
            "NORMAL": 5,
            "POSITION": 4,
            "TEXCOORD_0": 6
          },
          "indices": 7,
          "material": 0,
          "mode": 4
        }
      ]
    },
    {
      "name": "piccolo2_Chiome_0",
      "primitives": [
        {
          "attributes": {
            "NORMAL": 9,
            "POSITION": 8,
            "TEXCOORD_0": 10
          },
          "indices": 11,
          "material": 0,
          "mode": 4
        }
      ]
    },
    {
      "name": "Cylinder_Legno_0",
      "primitives": [
        {
          "attributes": {
            "NORMAL": 13,
            "POSITION": 12,
            "TEXCOORD_0": 14
          },
          "indices": 15,
          "material": 1,
          "mode": 4
        }
      ]
    }
  ],
  "nodes": [
    {
      "children": [
        1
      ],
      "matrix": [
        1.0,
        0.0,
        0.0,
        0.0,
        0.0,
        2.220446049250313e-16,
        -1.0,
        0.0,
        0.0,
        1.0,
        2.220446049250313e-16,
        0.0,
        0.0,
        0.0,
        0.0,
        1.0
      ],
      "name": "Sketchfab_model"
    },
    {
      "children": [
        2
      ],
      "matrix": [
        1.0,
        0.0,
        0.0,
        0.0,
        0.0,
        0.0,
        1.0,
        0.0,
        0.0,
        -1.0,
        0.0,
        0.0,
        0.0,
        0.0,
        0.0,
        1.0
      ],
      "name": "14d63ffa2ed24f89bb3857d2b0449b25.fbx"
    },
    {
      "children": [
        3,
        5
      ],
      "name": "RootNode"
    },
    {
      "children": [
        4
      ],
      "matrix": [
        -0.9428161063276339,
        -0.33298412234968106,
        -0.01481093893756526,
        0.0,
        -0.3329430429248604,
        0.9429324335619242,
        -0.00523028726954471,
        0.0,
        0.015707317311821525,
        1.4137996329210978e-16,
        -0.9998766324816606,
        0.0,
        1266.0430908203125,
        966.1254272460938,
        -13.749930381774902,
        1.0
      ],
      "name": "CINEMA_4D_Editor"
    },
    {
      "name": "Object_4"
    },
    {
      "children": [
        6,
        8,
        10,
        12
      ],
      "matrix": [
        1.0,
        0.0,
        0.0,
        0.0,
        0.0,
        1.0,
        0.0,
        0.0,
        0.0,
        0.0,
        1.0,
        0.0,
        24.50027847290039,
        570.21044921875,
        0.01781081035733223,
        1.0
      ],
      "name": "Albero_1"
    },
    {
      "children": [
        7
      ],
      "matrix": [
        0.2091178362078564,
        0.0,
        -0.9778904491709407,
        0.0,
        0.0,
        1.0,
        0.0,
        0.0,
        0.9778904491709407,
        0.0,
        0.2091178362078564,
        0.0,
        86.27686309814453,
        156.8191375732422,
        214.8607635498047,
        1.0
      ],
      "name": "piccolo_1"
    },
    {
      "mesh": 0,
      "name": "piccolo_1_Chiome_0"
    },
    {
      "children": [
        9
      ],
      "matrix": [
        0.08679324338089078,
        0.0,
        0.9962263462202883,
        0.0,
        0.0,
        1.0,
        0.0,
        0.0,
        -0.9962263462202883,
        0.0,
        0.08679324338089078,
        0.0,
        150.00323486328125,
        32.552696228027344,
        -214.8251495361328,
        1.0
      ],
      "name": "piccolo"
    },
    {
      "mesh": 1,
      "name": "piccolo_Chiome_0"
    },
    {
      "children": [
        11
      ],
      "matrix": [
        0.7652628656509769,
        0.0,
        -0.6437179090686035,
        0.0,
        0.0,
        1.0,
        0.0,
        0.0,
        0.6437179090686035,
        0.0,
        0.7652628656509769,
        0.0,
        -211.7798309326172,
        318.2501525878906,
        -0.01781081035733223,
        1.0
      ],
      "name": "piccolo2"
    },
    {
      "mesh": 2,
      "name": "piccolo2_Chiome_0"
    },
    {
      "children": [
        13
      ],
      "matrix": [
        1.0,
        0.0,
        0.0,
        0.0,
        0.0,
        1.0,
        0.0,
        0.0,
        0.0,
        0.0,
        1.0,
        0.0,
        -24.50027847290039,
        -507.6219787597656,
        -0.01781081035733223,
        1.0
      ],
      "name": "Cylinder"
    },
    {
      "mesh": 3,
      "name": "Cylinder_Legno_0"
    }
  ],
  "scene": 0,
  "scenes": [
    {
      "name": "Sketchfab_Scene",
      "nodes": [
        0
      ]
    }
  ]
}
